# xmcd
#
# Track frame offsets: 
#        150
#        25917
#        67327
#        83387
#        106992
#        125585
#        153752
#        178865
#        196155
#        213755
#        226727
#        245552
#        255962
#
# Disc length: 3751 seconds
#
# Revision: 0
# Processed by: cddbd v1.5.1PL0 Copyright (c) Steve Scherf et al.
# Submitted via: ExactAudioCopy v0.95b1
#
DISCID=a00ea50d
DTITLE=Bob Dylan - The French Girl [CD2]
DYEAR=1987
DGENRE=
TTITLE0=It's All Over Now Baby Blue
TTITLE1=Joey
TTITLE2=If Not For You
TTITLE3=Slow Train Coming
TTITLE4=Tomorrow Is A Long Time
TTITLE5=The Ballad Of Frankie Lee and Judas Priest
TTITLE6=John Brown
TTITLE7=I'll Be Your Baby Tonight
TTITLE8=Don't Keep Me Waiting Too Long
TTITLE9=Stealin'
TTITLE10=I Want You
TTITLE11=Oh Boy
TTITLE12=Tangled Up In Blue
EXTD=
EXTT0=
EXTT1=
EXTT2=
EXTT3=
EXTT4=
EXTT5=
EXTT6=
EXTT7=
EXTT8=
EXTT9=
EXTT10=
EXTT11=
EXTT12=
PLAYORDER=
